<mxfile host="app.diagrams.net" modified="2023-07-11T05:24:30.132Z" agent="Mozilla/5.0 (Windows NT 10.0; Win64; x64) AppleWebKit/537.36 (KHTML, like Gecko) Chrome/114.0.0.0 Safari/537.36" etag="5hKgcv3J9w73rTweSNC4" version="21.6.1" type="device">
  <diagram name="第 1 页" id="4QiLVzeE1tTqHgC0OgL6">
    <mxGraphModel dx="988" dy="520" grid="1" gridSize="10" guides="1" tooltips="1" connect="1" arrows="1" fold="1" page="1" pageScale="1" pageWidth="827" pageHeight="1169" math="0" shadow="0">
      <root>
        <mxCell id="0" />
        <mxCell id="1" parent="0" />
        <mxCell id="eZRgXxtGunZdMtfv_eY2-1" value="w" style="whiteSpace=wrap;html=1;aspect=fixed;fontSize=20;fontFamily=Courier New;" vertex="1" parent="1">
          <mxGeometry x="120" y="360" width="40" height="40" as="geometry" />
        </mxCell>
        <mxCell id="eZRgXxtGunZdMtfv_eY2-2" value="u" style="whiteSpace=wrap;html=1;aspect=fixed;fontSize=20;fontFamily=Courier New;" vertex="1" parent="1">
          <mxGeometry x="120" y="280" width="40" height="40" as="geometry" />
        </mxCell>
        <mxCell id="eZRgXxtGunZdMtfv_eY2-3" value="h" style="whiteSpace=wrap;html=1;aspect=fixed;fontSize=20;fontFamily=Courier New;" vertex="1" parent="1">
          <mxGeometry x="120" y="320" width="40" height="40" as="geometry" />
        </mxCell>
        <mxCell id="eZRgXxtGunZdMtfv_eY2-4" value="u" style="whiteSpace=wrap;html=1;aspect=fixed;fontSize=20;fontFamily=Courier New;" vertex="1" parent="1">
          <mxGeometry x="160" y="360" width="40" height="40" as="geometry" />
        </mxCell>
        <mxCell id="eZRgXxtGunZdMtfv_eY2-5" value="d" style="whiteSpace=wrap;html=1;aspect=fixed;fontSize=20;fontFamily=Courier New;" vertex="1" parent="1">
          <mxGeometry x="160" y="280" width="40" height="40" as="geometry" />
        </mxCell>
        <mxCell id="eZRgXxtGunZdMtfv_eY2-6" value="a" style="whiteSpace=wrap;html=1;aspect=fixed;fontSize=20;fontFamily=Courier New;" vertex="1" parent="1">
          <mxGeometry x="160" y="320" width="40" height="40" as="geometry" />
        </mxCell>
        <mxCell id="eZRgXxtGunZdMtfv_eY2-7" value="s" style="whiteSpace=wrap;html=1;aspect=fixed;fontSize=20;fontFamily=Courier New;" vertex="1" parent="1">
          <mxGeometry x="200" y="360" width="40" height="40" as="geometry" />
        </mxCell>
        <mxCell id="eZRgXxtGunZdMtfv_eY2-8" value="i" style="whiteSpace=wrap;html=1;aspect=fixed;fontSize=20;fontFamily=Courier New;" vertex="1" parent="1">
          <mxGeometry x="200" y="280" width="40" height="40" as="geometry" />
        </mxCell>
        <mxCell id="eZRgXxtGunZdMtfv_eY2-9" value="m" style="whiteSpace=wrap;html=1;aspect=fixed;fontSize=20;fontFamily=Courier New;" vertex="1" parent="1">
          <mxGeometry x="200" y="320" width="40" height="40" as="geometry" />
        </mxCell>
        <mxCell id="eZRgXxtGunZdMtfv_eY2-10" value="/" style="whiteSpace=wrap;html=1;aspect=fixed;fontSize=20;fontFamily=Courier New;" vertex="1" parent="1">
          <mxGeometry x="240" y="360" width="40" height="40" as="geometry" />
        </mxCell>
        <mxCell id="eZRgXxtGunZdMtfv_eY2-11" value="/" style="whiteSpace=wrap;html=1;aspect=fixed;fontSize=20;fontFamily=Courier New;" vertex="1" parent="1">
          <mxGeometry x="240" y="280" width="40" height="40" as="geometry" />
        </mxCell>
        <mxCell id="eZRgXxtGunZdMtfv_eY2-12" value="/" style="whiteSpace=wrap;html=1;aspect=fixed;fontSize=20;fontFamily=Courier New;" vertex="1" parent="1">
          <mxGeometry x="240" y="320" width="40" height="40" as="geometry" />
        </mxCell>
      </root>
    </mxGraphModel>
  </diagram>
</mxfile>
